<svg width="578" height="104" viewBox="0 0 578 104" fill="none" xmlns="http://www.w3.org/2000/svg">
<path d="M0.7 2.99999H25.76V101H0.7V2.99999ZM123.209 2.99999H148.129V101H128.809L94.2288 51.72V101H69.1688V2.99999H88.6288L123.209 52.28V2.99999ZM225.134 103.1C214.774 103.1 206.188 100.907 199.374 96.52C192.561 92.1333 187.801 86.2067 185.094 78.74L206.514 66.28C210.154 74.96 216.594 79.3 225.834 79.3C233.488 79.3 237.314 77.1067 237.314 72.72C237.314 69.8267 235.121 67.4933 230.734 65.72C228.868 64.9733 224.761 63.7133 218.414 61.94C209.454 59.3267 202.361 55.6867 197.134 51.02C191.908 46.26 189.294 39.68 189.294 31.28C189.294 22.2267 192.514 14.9 198.954 9.3C205.488 3.7 213.608 0.899995 223.314 0.899995C231.528 0.899995 238.808 2.81333 245.154 6.64C251.501 10.4667 256.354 16.02 259.714 23.3L238.714 35.62C235.634 28.34 230.548 24.7 223.454 24.7C220.468 24.7 218.181 25.3067 216.594 26.52C215.101 27.7333 214.354 29.2733 214.354 31.14C214.354 33.2867 215.474 35.1067 217.714 36.6C220.048 38.0933 224.528 39.82 231.154 41.78C235.914 43.18 239.741 44.4867 242.634 45.7C245.528 46.9133 248.701 48.6867 252.154 51.02C255.608 53.26 258.174 56.2 259.854 59.84C261.534 63.3867 262.374 67.5867 262.374 72.44C262.374 82.0533 258.968 89.5667 252.154 94.98C245.341 100.393 236.334 103.1 225.134 103.1ZM324.545 77.48H362.485V101H299.485V2.99999H361.785V26.38H324.545V39.96H358.285V63.06H324.545V77.48ZM427.467 77.48H465.407V101H402.407V2.99999H464.707V26.38H427.467V39.96H461.207V63.06H427.467V77.48ZM540.189 103.1C529.829 103.1 521.242 100.907 514.429 96.52C507.616 92.1333 502.856 86.2067 500.149 78.74L521.569 66.28C525.209 74.96 531.649 79.3 540.889 79.3C548.542 79.3 552.369 77.1067 552.369 72.72C552.369 69.8267 550.176 67.4933 545.789 65.72C543.922 64.9733 539.816 63.7133 533.469 61.94C524.509 59.3267 517.416 55.6867 512.189 51.02C506.962 46.26 504.349 39.68 504.349 31.28C504.349 22.2267 507.569 14.9 514.009 9.3C520.542 3.7 528.662 0.899995 538.369 0.899995C546.582 0.899995 553.862 2.81333 560.209 6.64C566.556 10.4667 571.409 16.02 574.769 23.3L553.769 35.62C550.689 28.34 545.602 24.7 538.509 24.7C535.522 24.7 533.236 25.3067 531.649 26.52C530.156 27.7333 529.409 29.2733 529.409 31.14C529.409 33.2867 530.529 35.1067 532.769 36.6C535.102 38.0933 539.582 39.82 546.209 41.78C550.969 43.18 554.796 44.4867 557.689 45.7C560.582 46.9133 563.756 48.6867 567.209 51.02C570.662 53.26 573.229 56.2 574.909 59.84C576.589 63.3867 577.429 67.5867 577.429 72.44C577.429 82.0533 574.022 89.5667 567.209 94.98C560.396 100.393 551.389 103.1 540.189 103.1Z" fill="url(#paint0_linear_138_86)"/>
<defs>
<linearGradient id="paint0_linear_138_86" x1="9.91248" y1="-19.2806" x2="923.313" y2="308.756" gradientUnits="userSpaceOnUse">
<stop stop-color="white"/>
<stop offset="1" stop-color="white" stop-opacity="0"/>
</linearGradient>
</defs>
</svg>
